<?xml version="1.0" encoding="utf-8"?>
<!-- Generator: Adobe Illustrator 24.2.1, SVG Export Plug-In . SVG Version: 6.00 Build 0)  -->
<svg version="1.1" id="Layer_1" xmlns="http://www.w3.org/2000/svg" xmlns:xlink="http://www.w3.org/1999/xlink" x="0px" y="0px"
	 viewBox="0 0 2400 1200" style="enable-background:new 0 0 2400 1200;" xml:space="preserve">
<style type="text/css">
	.st0{fill:#1A1A1A;}
	.st1{fill:#2B2B2B;}
	.st2{fill:#FFFFFF;}
</style>
<g id="Layer_2_1_">
	<g id="Layer_1-2">
		<rect class="st0" width="300" height="1200"/>
		<rect x="300" class="st1" width="300" height="1200"/>
		<rect x="600" class="st0" width="300" height="1200"/>
		<rect x="900" class="st1" width="300" height="1200"/>
		<path class="st2" d="M130.7,274c0,10.6-8.1,22.5-19.2,34.5l-27.3,29h51.3v15.9H60.8v-12.9l38.7-41.5c7.7-7.8,12.8-16.4,12.8-22.4
			c0-8.4-6.6-13.5-17.6-13.5c-9.2,0-19.8,5.1-28.6,13.2l-7-13.6c11.4-9.3,24.7-15,38.2-15C117.1,247.6,130.7,257.9,130.7,274z"/>
		<path class="st2" d="M238.7,300.8c0,34-15.9,53-44.6,53s-44.7-18.9-44.7-53s15.9-52.9,44.7-52.9S238.7,266.8,238.7,300.8z
			 M167.6,300.8c0,26.5,8.9,39,26.6,39s26.4-12.5,26.4-39s-8.9-39-26.4-39S167.6,274.1,167.6,300.8z"/>
		<path class="st2" d="M432.7,925.8v28.3H484v15.9h-51.3V999h59.1v15.9H415v-105h75v15.9L432.7,925.8z"/>
		<path class="st2" d="M456.9,247.9c21.8,0,35.2,9.9,35.2,26.2c0,11.9-7,20.7-18.5,23.4c14.1,2.4,22.5,12.5,22.5,26.5
			c0,18-14.5,28.8-38.2,28.8h-46.6v-105L456.9,247.9z M429,291.4h27c11.2,0,18-5.2,18-14.1s-6.8-13.6-18-13.6h-27V291.4z M429,337.2
			h27c13.8,0,22-5.4,22-15.3c0-9.3-8.2-14.9-22-14.9h-27V337.2z"/>
		<path class="st2" d="M731.2,744.6c0,10.7-8.1,22.5-19.2,34.5L684.7,808H736v15.9h-74.7V811l38.7-41.5c7.7-7.8,12.8-16.3,12.8-22.3
			c0-8.4-6.6-13.5-17.5-13.5c-9.2,0-19.8,5.1-28.7,13.2l-7-13.7c11.4-9.3,24.8-15,38.2-15C717.5,718.2,731.2,728.5,731.2,744.6z"/>
		<path class="st2" d="M839.2,771.4c0,34-15.9,52.9-44.5,52.9c-28.8,0-44.7-18.9-44.7-52.9s15.9-53,44.7-53
			C823.2,718.5,839.2,737.4,839.2,771.4z M768.1,771.4c0,26.5,8.8,39,26.5,39c17.5,0,26.4-12.5,26.4-39c0-26.7-8.8-39-26.4-39
			C776.9,732.4,768,744.7,768.1,771.4L768.1,771.4z"/>
		<path class="st2" d="M992.1,223.9v-89.2h-20.5v-15.7h38.2v105L992.1,223.9z"/>
		<path class="st2" d="M1124.1,171.4c0,34-15.9,52.9-44.6,52.9s-44.7-18.9-44.7-52.9s15.9-52.9,44.7-52.9S1124.1,137.4,1124.1,171.4
			z M1053,171.4c0,26.6,8.8,39,26.6,39c17.6,0,26.4-12.4,26.4-39c0-26.7-8.8-39-26.4-39C1061.8,132.4,1053,144.7,1053,171.4
			L1053,171.4z"/>
		<rect x="1200" class="st0" width="300" height="1200"/>
		<rect x="1500" class="st1" width="300" height="1200"/>
		<rect x="1800" class="st0" width="300" height="1200"/>
		<rect x="2100" class="st1" width="300" height="1200"/>
		<path class="st2" d="M1330.7,1006c0,10.7-8.1,22.5-19.2,34.5l-27.3,29h51.3v15.9h-74.7v-12.9l38.7-41.6
			c7.7-7.8,12.8-16.3,12.8-22.3c0-8.4-6.6-13.5-17.6-13.5c-9.2,0-19.8,5.1-28.6,13.2l-7-13.7c11.4-9.3,24.7-15,38.2-15
			C1317.1,979.6,1330.7,989.9,1330.7,1006z"/>
		<path class="st2" d="M1438.7,1032.8c0,34.1-15.9,53-44.6,53s-44.7-18.9-44.7-53s15.9-53,44.7-53S1438.7,998.8,1438.7,1032.8z
			 M1367.6,1032.8c0,26.6,8.8,39,26.6,39c17.6,0,26.4-12.4,26.4-39s-8.8-39-26.4-39C1376.5,993.8,1367.6,1006.1,1367.6,1032.8z"/>
		<path class="st2" d="M1656.9,909.9c21.8,0,35.2,9.9,35.2,26.2c0,11.8-7,20.7-18.4,23.4c14.1,2.4,22.5,12.5,22.5,26.5
			c0,18-14.6,28.8-38.2,28.8h-46.7v-105L1656.9,909.9z M1629,953.4h27c11.2,0,18-5.2,18-14.1s-6.8-13.7-18-13.7h-27V953.4z
			 M1629,999.2h27c13.8,0,22-5.4,22-15.3c0-9.3-8.2-14.8-22-14.8h-27V999.2z"/>
		<path class="st2" d="M1632.7,263.8v28.4h51.3v15.9h-51.3V337h59.1v15.9H1615v-105h75v15.9L1632.7,263.8z"/>
		<path class="st2" d="M1931.2,539.6c0,10.7-8.1,22.5-19.2,34.5l-27.3,28.9h51.3v15.9h-74.7V606l38.7-41.5
			c7.7-7.8,12.8-16.3,12.8-22.3c0-8.4-6.6-13.5-17.6-13.5c-9.2,0-19.8,5.1-28.7,13.2l-7-13.7c11.4-9.3,24.8-15,38.2-15
			C1917.5,513.2,1931.2,523.5,1931.2,539.6z"/>
		<path class="st2" d="M2039.2,566.4c0,34-15.9,52.9-44.6,52.9s-44.7-18.9-44.7-52.9s15.9-53,44.7-53S2039.2,532.4,2039.2,566.4z
			 M1968.1,566.4c0,26.5,8.8,39,26.6,39s26.4-12.4,26.4-39s-8.8-39-26.4-39S1968.1,539.7,1968.1,566.4z"/>
		<path class="st2" d="M2192.1,861.9v-89.2h-20.5v-15.8h38.2v105L2192.1,861.9z"/>
		<path class="st2" d="M2324.1,809.4c0,34-15.9,52.9-44.6,52.9c-28.8,0-44.7-18.9-44.7-52.9s15.9-53,44.7-53
			C2308.2,756.5,2324.1,775.4,2324.1,809.4z M2253,809.4c0,26.5,8.9,39,26.6,39s26.4-12.5,26.4-39c0-26.7-8.9-39-26.4-39
			S2253,782.7,2253,809.4L2253,809.4z"/>
	</g>
</g>
</svg>
