<svg xmlns="http://www.w3.org/2000/svg" viewBox="0 0 2400 1200"><defs><style>.cls-1{fill:#fff;}.cls-2{fill:#f2f2f2;}</style></defs><g id="Layer_2" data-name="Layer 2"><g id="Layer_1-2" data-name="Layer 1"><rect class="cls-1" width="300" height="1200"/><rect class="cls-2" x="300" width="300" height="1200"/><rect class="cls-1" x="600" width="300" height="1200"/><rect class="cls-2" x="900" width="300" height="1200"/><path d="M130.72,274c0,10.65-8.1,22.5-19.2,34.5l-27.3,28.95h51.3v15.9H60.83v-12.9l38.69-41.55c7.65-7.8,12.75-16.35,12.75-22.35,0-8.4-6.6-13.5-17.55-13.5-9.15,0-19.8,5.1-28.64,13.2l-7-13.65c11.39-9.3,24.74-15,38.24-15C117.07,247.58,130.72,257.93,130.72,274Z"/><path d="M238.72,300.83c0,34.05-15.9,52.95-44.55,52.95s-44.69-18.9-44.69-52.95,15.89-52.95,44.69-52.95S238.72,266.78,238.72,300.83Zm-71.1,0c0,26.55,8.85,39,26.55,39s26.4-12.45,26.4-39-8.85-39-26.4-39S167.62,274.13,167.62,300.83Z"/><path d="M432.72,925.83v28.35H484v15.9h-51.3V999h59.1v15.9H415v-105h75v15.9Z"/><path d="M456.87,247.93c21.75,0,35.25,9.9,35.25,26.25,0,11.85-7.05,20.7-18.45,23.4,14.1,2.4,22.5,12.45,22.5,26.55,0,18-14.55,28.79-38.25,28.79H411.27v-105ZM429,291.43h27c11.25,0,18-5.25,18-14.1s-6.75-13.65-18-13.65H429Zm0,45.74h27c13.8,0,22-5.4,22-15.29,0-9.3-8.25-14.85-22-14.85H429Z"/><path d="M731.15,744.58c0,10.65-8.1,22.5-19.2,34.5L684.65,808H736v15.9h-74.7V811L700,769.48c7.65-7.8,12.75-16.35,12.75-22.35,0-8.4-6.6-13.5-17.55-13.5-9.15,0-19.8,5.1-28.65,13.2l-7-13.65c11.4-9.3,24.75-15,38.25-15C717.5,718.18,731.15,728.53,731.15,744.58Z"/><path d="M839.15,771.43c0,34-15.9,52.94-44.55,52.94-28.8,0-44.7-18.9-44.7-52.94s15.9-52.95,44.7-52.95C823.25,718.48,839.15,737.38,839.15,771.43Zm-71.1,0c0,26.54,8.85,39,26.55,39,17.55,0,26.4-12.45,26.4-39,0-26.7-8.85-39-26.4-39C776.9,732.43,768.05,744.73,768.05,771.43Z"/><path d="M992.07,223.92V134.68H971.53V118.93h38.24v105Z"/><path d="M1124.07,171.43c0,34-15.9,52.94-44.55,52.94s-44.7-18.9-44.7-52.94,15.9-52.95,44.7-52.95S1124.07,137.38,1124.07,171.43Zm-71.1,0c0,26.55,8.85,39,26.55,39,17.55,0,26.4-12.44,26.4-39,0-26.7-8.85-39-26.4-39C1061.82,132.43,1053,144.73,1053,171.43Z"/><rect class="cls-1" x="1200" width="300" height="1200"/><rect class="cls-2" x="1500" width="300" height="1200"/><rect class="cls-1" x="1800" width="300" height="1200"/><rect class="cls-2" x="2100" width="300" height="1200"/><path d="M1330.72,1006c0,10.65-8.1,22.5-19.2,34.5l-27.3,29h51.3v15.9h-74.69v-12.9l38.69-41.55c7.65-7.8,12.75-16.35,12.75-22.35,0-8.4-6.6-13.5-17.55-13.5-9.15,0-19.8,5.1-28.64,13.2l-7-13.65c11.39-9.3,24.74-15,38.24-15C1317.07,979.58,1330.72,989.93,1330.72,1006Z"/><path d="M1438.72,1032.83c0,34.05-15.9,53-44.55,53s-44.7-18.9-44.7-53,15.91-52.95,44.7-52.95S1438.72,998.78,1438.72,1032.83Zm-71.1,0c0,26.55,8.85,39,26.55,39,17.55,0,26.4-12.45,26.4-39s-8.85-39-26.4-39C1376.47,993.83,1367.62,1006.13,1367.62,1032.83Z"/><path d="M1656.87,909.93c21.75,0,35.25,9.9,35.25,26.25,0,11.85-7,20.7-18.45,23.4,14.1,2.4,22.5,12.45,22.5,26.55,0,18-14.55,28.79-38.25,28.79h-46.65v-105Zm-27.9,43.5h27c11.25,0,18-5.25,18-14.1s-6.75-13.65-18-13.65h-27Zm0,45.74h27c13.8,0,22-5.39,22-15.29,0-9.3-8.25-14.85-22-14.85h-27Z"/><path d="M1632.72,263.83v28.35H1684v15.9h-51.3V337h59.1v15.9H1615v-105h75v15.9Z"/><path d="M1931.15,539.58c0,10.65-8.1,22.5-19.2,34.5L1884.65,603H1936v15.9h-74.7V606l38.7-41.54c7.65-7.8,12.75-16.35,12.75-22.35,0-8.4-6.6-13.5-17.55-13.5-9.15,0-19.8,5.1-28.65,13.2l-7-13.65c11.4-9.3,24.75-15,38.25-15C1917.5,513.18,1931.15,523.53,1931.15,539.58Z"/><path d="M2039.15,566.43c0,34-15.9,52.94-44.55,52.94s-44.7-18.9-44.7-52.94,15.9-52.95,44.7-52.95S2039.15,532.38,2039.15,566.43Zm-71.1,0c0,26.55,8.85,39,26.55,39s26.4-12.44,26.4-39-8.85-39-26.4-39S1968.05,539.73,1968.05,566.43Z"/><path d="M2192.07,861.92V772.68h-20.54V756.93h38.24v105Z"/><path d="M2324.07,809.43c0,34-15.9,52.94-44.55,52.94-28.8,0-44.7-18.9-44.7-52.94s15.9-52.95,44.7-52.95C2308.17,756.48,2324.07,775.38,2324.07,809.43Zm-71.1,0c0,26.54,8.85,39,26.55,39s26.4-12.45,26.4-39c0-26.7-8.85-39-26.4-39S2253,782.73,2253,809.43Z"/></g></g></svg>