<svg xmlns="http://www.w3.org/2000/svg" viewBox="0 0 675.74 604.33"><defs><style>.cls-1{fill:#020202;}</style></defs><g id="Layer_2" data-name="Layer 2"><g id="Layer_1-2" data-name="Layer 1"><path d="M574.94,604.33H103.62V472.05c-21.47-1.36-41.93-.09-62.29-.7S.25,450.41.19,429.86q-.4-125.52,0-251.06c0-23,17.62-41.82,41.46-45.1,5.14-.7,10.45-.1,15.68-.1q280.49,0,561-.12c24.28,0,43.32,6.23,53.73,30.93a44.38,44.38,0,0,1,3.64,18.07q.18,123.57,0,247.14c-.06,20.63-20.57,41.24-40.9,41.69-19.45.44-38.92.1-59.74.1ZM517.91,292H157.2c0,84.81,0,168.34.05,251.86a6.48,6.48,0,0,0,1.25,3.37c.71,1,1.82,1.82,1.39,1.42h358Z"/><path class="cls-1" d="M102.2,77.23c0-15.63-.32-29.88.08-44.12C102.82,13.58,115.92.19,135.63.16q202.28-.32,404.54,0c19.69,0,32.77,13.46,33.32,33,.39,14.23.07,28.49.07,44.08Z"/></g></g></svg>