<svg xmlns="http://www.w3.org/2000/svg" viewBox="0 0 692.74 240.63"><defs><style>.cls-1{fill:#fff;}</style></defs><g id="Layer_2" data-name="Layer 2"><g id="Layer_1-2" data-name="Layer 1"><path class="cls-1" d="M229.91,102.55v12.07c0,34.52-10.06,60.32-32.51,83.11C175,220.19,146.46,232.25,115,232.25,49.27,232.25,0,182.65,0,116.63,0,49.94,48.93,0,114.62,0c36.19,0,68.7,15.42,90.49,42.9L170.59,70c-16.42-19.43-32.85-27.81-55-27.81-39.21,0-69,32.17-69,74.4,0,41.56,30.84,74.07,70.05,74.07,19.1,0,38.21-8.38,49.94-22.46,6.7-7.71,10.05-14.74,13.74-28.15H118V102.55Z"/><path class="cls-1" d="M438.7,240.63,418.59,216.5c-18.43,10.73-36.86,15.75-58.65,15.75A114.71,114.71,0,0,1,245,117.3C245,50.94,295.6,0,361.62,0c65,0,114.28,49.27,114.28,114.28,0,28.83-8.71,54.63-25.8,76.08l21.11,22.79Zm-19.1-85.12A85.25,85.25,0,0,0,429.32,115c0-40.88-29.83-72.39-68.71-72.39-39.54,0-69,31.51-69,73.74,0,41.22,29.5,73.39,67.37,73.39,11.39,0,19.44-2,27.48-7.37l-15.08-17.76,32.17-27.49Z"/><path class="cls-1" d="M543.94,189.36,530.53,227.9h-48.6L559,4.36h57.31L692.74,227.9H642.47l-12.74-38.54Zm42.89-130-31.16,92.5h62Z"/></g></g></svg>