<?xml version="1.0" standalone="no"?>
<!DOCTYPE svg PUBLIC "-//W3C//DTD SVG 20010904//EN"
 "http://www.w3.org/TR/2001/REC-SVG-20010904/DTD/svg10.dtd">
<svg version="1.0" xmlns="http://www.w3.org/2000/svg"
 width="1172.000000pt" height="1172.000000pt" viewBox="0 0 1172.000000 1172.000000"
 preserveAspectRatio="xMidYMid meet">
<metadata>
Created by potrace 1.11, written by Peter Selinger 2001-2013
</metadata>
<g transform="translate(0.000000,1172.000000) scale(0.100000,-0.100000)"
fill="#000000" stroke="none">
<path d="M5639 11716 c-2 -2 -40 -6 -84 -10 -256 -20 -581 -96 -845 -198 -267
-103 -574 -275 -795 -445 -123 -95 -169 -136 -325 -293 -193 -192 -291 -316
-465 -585 -56 -85 -186 -343 -230 -455 -20 -52 -45 -115 -55 -140 -26 -66 -95
-312 -114 -405 -24 -124 -25 -128 -45 -270 -14 -96 -24 -269 -24 -395 0 -107
12 -350 18 -360 2 -3 6 -34 10 -70 4 -36 8 -67 10 -70 2 -3 6 -27 9 -55 4 -27
16 -88 27 -135 11 -47 23 -95 25 -108 11 -56 79 -266 121 -371 43 -109 141
-320 180 -386 282 -479 586 -811 1003 -1097 305 -209 716 -392 1040 -463 186
-42 259 -55 392 -70 95 -12 126 -14 303 -19 159 -5 236 -11 295 -21 14 -2 42
-6 63 -9 103 -16 281 -77 410 -142 252 -128 474 -333 635 -589 79 -127 165
-350 188 -490 3 -16 7 -37 10 -45 19 -52 25 -326 11 -456 -19 -176 -95 -406
-188 -569 -254 -448 -692 -735 -1204 -791 -525 -57 -1063 177 -1387 601 -87
115 -79 104 -106 150 -130 223 -207 479 -217 724 -3 64 -8 149 -11 188 -3 40
-5 75 -5 78 0 2 -6 23 -14 45 -8 22 -12 40 -10 40 9 0 -57 172 -91 236 -154
291 -417 489 -743 560 -87 19 -128 22 -240 19 -158 -3 -178 -6 -297 -40 -102
-29 -241 -97 -330 -161 -72 -51 -199 -176 -240 -237 -16 -23 -31 -44 -34 -47
-30 -30 -107 -199 -136 -299 -36 -121 -39 -152 -39 -366 0 -255 12 -386 60
-640 9 -49 25 -126 37 -170 11 -44 22 -89 24 -99 17 -89 114 -367 189 -541 64
-150 200 -397 308 -560 57 -86 190 -267 228 -310 10 -11 39 -45 65 -75 359
-420 860 -785 1380 -1003 145 -61 340 -129 454 -159 115 -30 153 -39 175 -44
11 -2 31 -6 45 -9 100 -22 215 -41 302 -51 29 -3 64 -7 78 -10 140 -23 670
-23 810 0 14 3 48 7 75 11 85 10 118 15 171 26 28 5 64 12 80 14 16 3 40 8 54
11 14 3 33 7 42 9 54 11 266 70 343 96 224 75 475 188 695 311 94 53 356 228
410 275 8 7 58 47 110 90 283 229 534 511 757 848 83 127 129 207 213 375 57
112 120 255 136 305 2 6 20 55 40 110 20 55 43 123 51 150 22 78 73 266 79
294 11 58 44 249 50 291 3 25 7 55 9 68 28 173 28 691 -1 900 -4 31 -8 61 -19
140 -3 20 -9 51 -12 67 -3 17 -7 39 -9 50 -2 11 -5 27 -7 35 -2 8 -7 33 -12
55 -8 40 -30 129 -59 235 -42 154 -188 540 -208 548 -4 2 -8 9 -8 16 0 14
-133 267 -161 307 -10 15 -19 30 -19 34 0 13 -190 286 -266 383 -423 535
-1000 956 -1629 1190 -190 70 -450 145 -585 168 -19 3 -60 10 -90 15 -30 6
-70 12 -89 14 -19 2 -50 7 -70 10 -95 15 -233 25 -431 30 -300 8 -465 41 -681
136 -142 62 -328 185 -439 291 -37 35 -157 171 -189 213 -80 108 -175 293
-221 433 -31 97 -32 101 -49 192 -6 30 -13 69 -16 85 -14 68 -13 323 1 420 84
575 460 1045 1002 1251 87 33 223 68 306 79 21 3 52 8 70 11 42 7 271 8 324 0
23 -3 61 -9 85 -12 200 -26 434 -119 625 -246 340 -228 580 -588 661 -993 26
-129 30 -219 31 -615 1 -179 6 -350 12 -380 45 -248 215 -474 438 -586 57 -29
150 -62 195 -70 16 -3 46 -8 65 -12 82 -17 254 -3 352 29 290 94 497 319 564
614 18 78 22 257 9 405 -4 52 -9 106 -10 120 -1 14 -5 43 -8 65 -4 22 -9 57
-12 79 -2 21 -7 46 -9 55 -3 9 -7 34 -11 56 -3 22 -7 47 -10 55 -2 8 -6 27 -9
41 -14 84 -104 378 -142 464 -7 17 -25 59 -39 95 -104 253 -287 550 -489 792
-88 106 -295 314 -391 393 -33 28 -62 52 -65 55 -11 12 -160 120 -230 167
-303 204 -739 390 -1075 459 -11 2 -31 6 -45 9 -14 3 -36 7 -50 10 -14 3 -36
7 -50 10 -36 7 -76 13 -145 21 -33 3 -69 9 -80 11 -25 6 -540 15 -546 9z"/>
</g>
</svg>
